**ABCDEFGHIJKLMNOPQRSTUVWXYZabcdefghijklmnopqrstuvwxyz**************************
**PARASOLID !"#$%&'()*+,-./:;<=>?@[\]^_`{|}~0123456789**************************
**PART1;
MC=AMD64;
MC_MODEL=Intel64 Family 6 Model 165 Stepping 5, GenuineIntel;
MC_ID=unknown;
OS=Windows_NT;
OS_RELEASE=unknown;
FRU=Parasolid Version 33.1, build 255,  1- 8-2022;
APPL=SOLIDWORKS 2022-2022167;
SITE=;
USER=unknown;
FORMAT=text;
GUISE=transmit;
KEY=FILEmakeProjectedPlanarWire.x_t;
DATE=Mon Apr  3 20:48:14 2023;
**PART2;
SCH=SCH_3301255_33103;
USFLD_SIZE=0;
**PART3;
**END_OF_HEADER*****************************************************************
T51 : TRANSMIT FILE created by modeller version 330125523 SCH_3301255_33103_1300
6230 0 12 35 CCCI7 lattice222 0 CCCI4 mesh1006 0 I8 polyline1008 0 CCCCCCCDI5 ow
ner1040 0 CCCCCCI13 boundary_mesh1006 0 I17 boundary_polyline1008 0 CCCA16 index
_map_offset0 0 1 dA9 index_map82 0 A17 node_id_index_map82 0 A20 schema_embeddin
g_map82 0 A5 child12 0 A14 lowest_node_id0 0 1 dA16 mesh_offset_data206 0 Z1 976
6 0 0 0 0 0 0 0 0 0 1e3 1e-8 0 2 0 1 0 3 1 3 4 5 6 0 0 7 8 9 0 0 0 0 0 0 0 13 25
5 3 97 0 1 0 10 0 0 7 10 50 255 4 3 0 10 0 0 0 +0 -.0262128 0 0 -1 0 0 0 -1 31 2
55 5 68 0 8 11 0 0 --.027925899952 -.0262128 .014161900048 0 -1 0 0 0 -1 .008064
5 29 255 6 9766 0 9 12 0 -.02668021473585415 -.0262128 .0153399401968386 19 8 CC
CCCCCA5 owner12 0 Z7 96 0 1 0 0 3 V0 16 255 8 66 0 ?13 0 14 5 0 0 1 18 255 9 976
5 0 15 0 16 6 ?1 17 255 15 0 0 0 0 9 17 18 0 17 +18 16 93 0 19 9 20 12 ?1 17 19
 0 0 0 0 16 21 22 0 23 -18 20 90 0 24 16 25 26 ?1 29 12 95 0 16 26 6 -.035990399
952 -.0262128 .014161900048 29 26 92 0 20 27 12 -.0312162036658389 -.0262128 .02
15246482930983 29 27 89 0 25 28 26 -.0252580059511419 -.0262128 .023290228553647
95 18 25 87 0 29 20 30 27 ?1 29 28 86 0 30 31 27 -.02159 -.0262128 .020153738456
08045 18 30 84 0 32 25 33 28 ?1 29 31 83 0 33 34 28 -.02159 -.0262128 -.02015373
845608045 18 33 81 0 35 30 36 31 ?1 29 34 80 0 36 37 31 -.0252580059511419 -.026
2128 -.02329022855364795 18 36 78 0 38 33 39 34 ?1 29 37 77 0 39 40 34 -.0312162
036658389 -.0262128 -.0215246482930983 18 39 75 0 41 36 42 37 ?1 29 40 74 0 42 0
 37 -.035990399952 -.0262128 -.014161900048 18 42 72 0 21 39 0 40 ?1 17 21 0 43
 41 23 42 19 22 0 44 +15 255 43 9 0 21 10 0 17 41 0 43 38 21 39 44 45 0 46 +17 2
3 0 43 21 24 16 13 8 0 0 -16 22 22 0 ?21 45 47 48 0 0 1 17 44 0 0 0 0 42 41 45 0
 0 -16 45 28 0 ?41 49 22 50 0 0 1 16 49 34 0 ?46 51 45 52 14 14 1 31 50 30 0 45
 48 52 0 +-.027925899952 -.0262128 -.014161900048 0 -1 0 0 0 -1 .0080645 30 255
 48 24 0 22 53 50 0 +-.035990399952 -.0262128 0 0 0 -1 31 52 36 0 49 50 54 0 --.
0215971554707567 -.0262128 -1035379938102578e-45 0 -1 0 0 0 -1 .0235761865517071
 31 54 44 0 51 52 55 0 --.024765 -.0262128 -.02015373845608045 0 -1 0 0 0 -1 .00
3175 16 51 42 0 ?56 57 49 54 0 0 1 30 55 50 0 57 54 11 0 +-.02159 -.0262128 0 0
 0 1 16 57 48 0 ?32 58 51 55 0 0 1 31 11 56 0 58 55 5 0 +-.024765 -.0262128 .020
15373845608045 0 -1 0 0 0 -1 .003175 16 58 54 0 ?29 14 57 11 0 0 1 17 29 0 43 24
 32 25 59 58 0 60 +16 14 60 0 ?60 8 58 52 49 49 1 17 60 0 0 0 0 25 24 14 0 0 +17
 24 0 43 23 29 20 60 14 0 13 -17 13 0 0 0 0 20 23 8 0 0 +17 32 0 43 29 35 30 61
 57 0 59 +17 59 0 0 0 0 30 29 58 0 0 -17 35 0 43 32 38 33 56 51 0 61 -17 61 0 0
 0 0 33 32 57 0 0 -17 38 0 43 35 41 36 46 49 0 56 -17 56 0 0 0 0 36 35 51 0 0 +1
7 46 0 0 0 0 39 38 49 0 0 +31 53 18 0 47 62 48 0 --.027925899952 -.0262128 -.014
161900048 0 -1 0 0 0 -1 .0017145 16 47 16 0 ?63 22 18 53 0 0 1 31 62 12 0 18 0 5
3 0 +-.027925899952 -.0262128 .014161900048 0 -1 0 0 0 -1 .0017145 16 18 10 0 ?1
5 47 0 62 0 0 1 17 63 0 64 63 63 0 65 47 0 0 +15 64 8 0 63 10 43 17 65 0 0 0 0 0
 63 47 0 0 -14 255 10 1 0 ?0 0 66 3 4 +0 0 0 0 3 15 66 7 0 17 10 64 17 17 0 66 1
7 17 9 15 18 0 0 -1 0 
